<svg width="72" height="128" viewBox="0 0 72 128" fill="none" xmlns="http://www.w3.org/2000/svg">
<path d="M62.5001 28L62.5 128M9.5001 28L9.5 128" stroke="black"/>
<path d="M49.1818 45.375C48.0994 45.375 47.1108 45.1108 46.2159 44.5824C45.3295 44.054 44.6222 43.3466 44.0938 42.4602C43.5653 41.5653 43.3011 40.5767 43.3011 39.4943C43.3011 38.4119 43.5653 37.4276 44.0938 36.5412C44.6222 35.6463 45.3295 34.9347 46.2159 34.4062C47.1108 33.8778 48.0994 33.6136 49.1818 33.6136C50.2642 33.6136 51.2486 33.8778 52.1349 34.4062C53.0298 34.9347 53.7415 35.6463 54.2699 36.5412C54.7983 37.4276 55.0625 38.4119 55.0625 39.4943C55.0625 40.5767 54.7983 41.5653 54.2699 42.4602C53.7415 43.3466 53.0298 44.054 52.1349 44.5824C51.2486 45.1108 50.2642 45.375 49.1818 45.375ZM49.1818 42.8182C49.7955 42.8182 50.3537 42.669 50.8565 42.3707C51.3594 42.0724 51.7599 41.6719 52.0582 41.169C52.3565 40.6662 52.5057 40.108 52.5057 39.4943C52.5057 38.8807 52.3565 38.3224 52.0582 37.8196C51.7599 37.3168 51.3594 36.9162 50.8565 36.6179C50.3537 36.3196 49.7955 36.1705 49.1818 36.1705C48.5682 36.1705 48.0099 36.3196 47.5071 36.6179C47.0043 36.9162 46.6037 37.3168 46.3054 37.8196C46.0071 38.3224 45.858 38.8807 45.858 39.4943C45.858 40.108 46.0071 40.6662 46.3054 41.169C46.6037 41.6719 47.0043 42.0724 47.5071 42.3707C48.0099 42.669 48.5682 42.8182 49.1818 42.8182Z" fill="black"/>
<rect x="17.5" y="66.5" width="9" height="9" fill="#8D2001" stroke="black"/>
<rect x="17.5" y="52.5" width="9" height="9" fill="#521300" stroke="black"/>
<rect x="31.5" y="52.5" width="9" height="9" fill="#521300" stroke="black"/>
<rect x="45.5" y="52.5" width="9" height="9" fill="#521300" stroke="black"/>
<rect x="45.5" y="94.5" width="9" height="9" fill="#FD6035" stroke="black"/>
<rect x="31.5" y="94.5" width="9" height="9" fill="#FD6035" stroke="black"/>
<rect x="17.5" y="94.5" width="9" height="9" fill="#FD6035" stroke="black"/>
<rect x="45.5" y="80.5" width="9" height="9" fill="#CA2D02" stroke="black"/>
<rect x="31.5" y="80.5" width="9" height="9" fill="#CA2D02" stroke="black"/>
<rect x="17.5" y="80.5" width="9" height="9" fill="#CA2D02" stroke="black"/>
<rect x="45.5" y="66.5" width="9" height="9" fill="#8D2001" stroke="black"/>
<rect x="31.5" y="66.5" width="9" height="9" fill="#8D2001" stroke="black"/>
<rect x="17.5" y="108.5" width="9" height="9" fill="#D9D9D9" stroke="black"/>
<rect x="17.5" y="108.5" width="9" height="9" fill="#F89377" stroke="black"/>
<rect x="45.5" y="108.5" width="9" height="9" fill="#F89377" stroke="black"/>
<rect x="31.5" y="108.5" width="9" height="9" fill="#F89377" stroke="black"/>
<path d="M1 34.6375L36.8444 1.50001" stroke="black"/>
<path d="M36.3444 1L71.3337 35.0145" stroke="black"/>
<line x1="9" y1="127.5" x2="63" y2="127.5" stroke="black"/>
</svg>
